<svg xmlns="http://www.w3.org/2000/svg" width="16.011" height="22.413" viewBox="0 0 16.011 22.413">
  <path id="ICON" d="M1624.239,1062.677c-.019,0-.038,0-.057,0h-4.744a27.685,27.685,0,0,1-2.858-.081,2.588,2.588,0,0,1-2.66-2.658,27.667,27.667,0,0,1-.083-2.861v-11.2a27.694,27.694,0,0,1,.081-2.858,2.589,2.589,0,0,1,2.658-2.66,27.675,27.675,0,0,1,2.861-.083h4.672a.848.848,0,0,1,.116-.011.75.75,0,0,1,.167.016,3.8,3.8,0,0,1,1.807.285,15.318,15.318,0,0,1,3.349,3.352,3.823,3.823,0,0,1,.284,1.8.8.8,0,0,1,0,.289v11.067a27.589,27.589,0,0,1-.083,2.859,2.587,2.587,0,0,1-2.659,2.658,25.963,25.963,0,0,1-2.713.083Zm-7.482-20.73a1.074,1.074,0,0,0-1.246,1.248c-.068.6-.072,1.483-.072,2.68v11.2c0,1.2,0,2.084.072,2.681a1.074,1.074,0,0,0,1.248,1.247c.6.067,1.483.071,2.679.071h4.8l.056,0c1.164,0,2.038-.006,2.624-.072a1.076,1.076,0,0,0,1.248-1.246c.068-.6.072-1.484.072-2.681v-10.4h-4a.8.8,0,0,1-.8-.8v-4h-4C1618.241,1041.875,1617.354,1041.88,1616.757,1041.947Zm8.281,3.127h3.182a1.16,1.16,0,0,0-.1-.442,16.86,16.86,0,0,0-2.634-2.637,1.161,1.161,0,0,0-.446-.1Zm-2.918,13.805a.849.849,0,0,1-.666-.321l-3.644-3.644a.855.855,0,0,1,1.21-1.209l2.25,2.251V1048.7a.85.85,0,0,1,.851-.85h.01a.85.85,0,0,1,.85.85v7.257l2.251-2.251a.855.855,0,0,1,1.209,1.209l-3.648,3.648a.848.848,0,0,1-.662.317Z" transform="translate(-1613.839 -1040.264)" />
</svg>
