<svg xmlns="http://www.w3.org/2000/svg" width="22" height="18" viewBox="0 0 22 18">
  <path id="message" d="M3,18a3,3,0,0,1-3-3V10c0-.009,0-.017,0-.026v0c0-.007,0-.015,0-.022v0c0-.007,0-.015,0-.022V9.915l0-.019V9.888l0-.017,0-.012,0-.013,0-.016,0-.009,0-.02v0a.993.993,0,0,1,.065-.2l3.47-7.809A3,3,0,0,1,6.3,0h9.4a3,3,0,0,1,2.745,1.785L21.9,9.566A1,1,0,0,1,22,10v5a3,3,0,0,1-3,3ZM2,15a1,1,0,0,0,1,1H19a1,1,0,0,0,1-1V11H15.535l-1.7,2.555A1,1,0,0,1,13,14H9a1,1,0,0,1-.833-.445L6.465,11H2ZM7,9a1,1,0,0,1,.833.445L9.535,12h2.93l1.7-2.554A1,1,0,0,1,15,9h4.462L16.616,2.6A1,1,0,0,0,15.7,2H6.3a1,1,0,0,0-.915.595L2.538,9Z" />
</svg>
