<svg xmlns="http://www.w3.org/2000/svg" width="20" height="25" viewBox="0 0 20 25">
  <path id="products" d="M60,450c-3.267,0-4.939,2.644-4.994,5.9A.983.983,0,0,0,55,456v1H51a1,1,0,0,0-1,1v8a46.019,46.019,0,0,0,.135,4.73,3.994,3.994,0,0,0,4.139,4.137A27.525,27.525,0,0,0,58,475h5a27.4,27.4,0,0,0,3.73-.135c1.222-.138,1.235-.432,1.971-1.168a4.749,4.749,0,0,0,1.166-2.971A46.273,46.273,0,0,0,70,466v-8a1,1,0,0,0-1-1H65v-1a.978.978,0,0,0-.006-.113C64.933,452.638,63.263,450,60,450Zm0,2c2.219,0,3,1.781,3,4v1H57v-1C57,453.781,57.781,452,60,452Zm-8,7h3v2a1,1,0,1,0,2,.028c0-.009,0-.019,0-.028v-2h6v2a1,1,0,1,0,2,.028c0-.009,0-.019,0-.028v-2h3v7c0,1.994-.006,3.477-.121,4.5a2.925,2.925,0,0,1-.592,1.781c-.267.267.246.478-.781.594A26.366,26.366,0,0,1,63,473H58a26.447,26.447,0,0,1-3.5-.121,2.927,2.927,0,0,1-1.781-.592,2.924,2.924,0,0,1-.594-1.781C52.005,469.479,52,468,52,466v-7Z" transform="translate(-50 -450)" />
</svg>
