<svg xmlns="http://www.w3.org/2000/svg" width="24" height="24" viewBox="0 0 24 24">
  <path id="settings" d="M9.08,21a.7.7,0,0,0-.484-.685.647.647,0,0,0-.709.122l-.059.06a3,3,0,1,1-4.245-4.244l.052-.052a.664.664,0,0,0-.465-1.12H3a3,3,0,0,1,0-6A.7.7,0,0,0,3.685,8.6a.647.647,0,0,0-.122-.709L3.5,7.828A3,3,0,1,1,7.746,3.584l.053.051a.649.649,0,0,0,.716.13,1.022,1.022,0,0,1,.2-.064A.647.647,0,0,0,9,3.171V3a3,3,0,1,1,6,0v.085a.654.654,0,0,0,.4.6.647.647,0,0,0,.709-.122l.059-.059a3,3,0,1,1,4.245,4.243l-.052.052a.651.651,0,0,0-.13.717,1.025,1.025,0,0,1,.064.2A.644.644,0,0,0,20.83,9H21a3,3,0,0,1,0,6h-.086a.664.664,0,0,0-.477,1.113l.06.059a3,3,0,1,1-4.244,4.244l-.052-.052a.663.663,0,0,0-1.121.465V21a3,3,0,0,1-6,0Zm.265-2.539A2.659,2.659,0,0,1,11.08,20.91V21a1,1,0,0,0,2,0v-.175a2.664,2.664,0,0,1,4.527-1.883l.06.06a1,1,0,1,0,1.416-1.416l-.067-.068a2.648,2.648,0,0,1-.533-2.917h0A2.652,2.652,0,0,1,20.91,13H21a1,1,0,1,0,0-2h-.174A2.65,2.65,0,0,1,18.4,9.394a1.006,1.006,0,0,1-.072-.264,2.653,2.653,0,0,1,.614-2.737l.06-.06a1,1,0,1,0-1.416-1.416l-.068.068A2.663,2.663,0,0,1,13,3.091V3a1,1,0,0,0-2,0v.174A2.65,2.65,0,0,1,9.394,5.6a1,1,0,0,1-.264.072,2.656,2.656,0,0,1-2.737-.614L6.333,5A1,1,0,0,0,4.917,6.413l.068.068a2.626,2.626,0,0,1,.554,2.865A2.659,2.659,0,0,1,3.09,11.081H3a1,1,0,1,0,0,2h.174a2.663,2.663,0,0,1,1.884,4.527L5,17.668a1,1,0,0,0,1.417,1.416l.068-.068a2.679,2.679,0,0,1,1.864-.762A2.469,2.469,0,0,1,9.345,18.461ZM8,12a4,4,0,1,1,4,4A4,4,0,0,1,8,12Zm2,0a2,2,0,1,0,2-2A2,2,0,0,0,10,12Z" />
</svg>
